<svg xmlns:dc="http://purl.org/dc/elements/1.1/" xmlns:cc="http://creativecommons.org/ns#" xmlns:rdf="http://www.w3.org/1999/02/22-rdf-syntax-ns#" xmlns:svg="http://www.w3.org/2000/svg" xmlns="http://www.w3.org/2000/svg" xmlns:sodipodi="http://sodipodi.sourceforge.net/DTD/sodipodi-0.dtd" xmlns:inkscape="http://www.inkscape.org/namespaces/inkscape" viewBox="0 0 100 100" version="1.1" x="0px" y="0px"><g style="display:inline;opacity:1"><path style="opacity:1;fill:#000000;fill-opacity:1;stroke:none;stroke-width:10;stroke-linecap:round;stroke-linejoin:round;stroke-miterlimit:4;stroke-dasharray:none;stroke-opacity:1" d="M 57.322266 7.3222656 L 56.427734 9.2851562 C 56.864311 9.6393818 57.294499 10.007194 57.722656 10.380859 L 25.080078 45.25 L 21.427734 43.142578 L 18.042969 43.142578 L 19.285156 46.25 L 16.082031 43.142578 L 6.9785156 43.142578 L 18.316406 49.689453 L 6.9648438 56.244141 L 16.068359 56.244141 L 21.964844 51.964844 L 17.683594 56.244141 L 18.103516 56.244141 L 22.142578 53.214844 L 19.871094 56.244141 L 20.552734 56.244141 L 25.761719 53.236328 L 59.222656 88.117188 C 58.763643 88.630092 58.292793 89.164157 57.857422 89.642578 L 60 90.892578 C 72.027547 80.422787 78.657167 65.767381 78.988281 50.892578 L 87.677734 50.892578 L 82.857422 59.642578 L 95.357422 49.642578 L 83.572266 39.822266 L 87.322266 47.755859 L 78.962891 47.755859 C 78.403136 32.907512 71.513504 18.118709 57.322266 7.3222656 z M 58.464844 11.048828 C 65.559471 17.509085 71.301966 26.676119 73.035156 38.214844 C 70.266676 39.11328 69.920441 41.463834 69.464844 43.75 C 69.750856 45.085212 70.044837 46.420647 69.96875 47.755859 L 29.419922 47.755859 L 25.96875 45.763672 L 58.464844 11.048828 z M 29.822266 50.892578 L 68.912109 50.892578 C 68.670076 51.249706 68.382238 51.607716 68.035156 51.964844 C 71.651775 54.583892 72.574465 57.203218 73.392578 59.822266 C 72.554225 71.770542 65.630621 80.868313 59.890625 87.371094 L 26.652344 52.722656 L 29.822266 50.892578 z "></path></g></svg>